# Free SolidWorks .OBJ Exporter v2.0
# num_vertices: 18 


v -0.44960257133194 -0.513147953606742 -0.024975
v -0.44960257133194 0.916852046393258 -0.024975
v 0.900555300535747 -0.40216310794085 -0.024975
v 0.900555300535747 -0.40216310794085 0.025025
v -0.44960257133194 0.916852046393258 0.025025
v -0.44960257133194 -0.513147953606742 0.025025
v -0.44960257133194 0.916852046393258 0.025025
v -0.44960257133194 0.916852046393258 -0.024975
v -0.44960257133194 -0.513147953606742 -0.024975
v -0.44960257133194 -0.513147953606742 0.025025
v 0.900555300535747 -0.40216310794085 0.025025
v 0.900555300535747 -0.40216310794085 -0.024975
v -0.44960257133194 0.916852046393258 -0.024975
v -0.44960257133194 0.916852046393258 0.025025
v -0.44960257133194 -0.513147953606742 0.025025
v -0.44960257133194 -0.513147953606742 -0.024975
v 0.900555300535747 -0.40216310794085 -0.024975
v 0.900555300535747 -0.40216310794085 0.025025
# 18 vertices

vn -0 0 -1
vn -0 0 -1
vn -0 0 -1
vn 0 -0 1
vn 0 -0 1
vn 0 -0 1
vn -1 -0 -0
vn -1 -0 -0
vn -1 -0 -0
vn -1 -0 -0
vn 0.698809011955008 0.715308300532341 -0
vn 0.698809011955008 0.715308300532341 -0
vn 0.698809011955008 0.715308300532341 -0
vn 0.698809011955008 0.715308300532341 -0
vn 8.19250633856584E-02 -0.996638492127038 -0
vn 8.19250633856584E-02 -0.996638492127038 -0
vn 8.19250633856584E-02 -0.996638492127038 -0
vn 8.19250633856584E-02 -0.996638492127038 -0
# 18 normals

vt 0 0
vt 0 1.43
vt -1.35015787186769 0.110984845665891
vt -1.35015787186769 0.110984845665891
vt 0 1.43
vt 0 0
vt 0 1.43
vt 0.05 1.43
vt 0.05 0
vt 0 0
vt 1.88751880952994 0
vt 1.88751880952994 -0.05
vt 0 -0.05
vt 0 0
vt 1.35471174606769 0
vt 1.35471174606769 -0.05
vt -0 -0.05
vt 0 0
# 18 UVs

g  mesh 1 fin2
usemtl  1 
f 15/15/15 17/17/17 18/18/18
f 17/17/17 15/15/15 16/16/16
f 11/11/11 13/13/13 14/14/14
f 13/13/13 11/11/11 12/12/12
f 7/7/7 9/9/9 10/10/10
f 9/9/9 7/7/7 8/8/8
f 6/6/6 4/4/4 5/5/5
f 3/3/3 1/1/1 2/2/2

