# Free SolidWorks .OBJ Exporter v2.0
# num_vertices: 24 


v -0.262733538106299 -0.856461182627012 -0.04995
v -0.262733538106299 1.04353881737299 -0.04995
v 0.288905651631293 0.616576560567943 -0.04995
v 0.288905651631293 -0.818300603464906 -0.04995
v -0.262733538106299 -0.856461182627012 0.05005
v 0.288905651631293 -0.818300603464906 0.05005
v 0.288905651631293 0.616576560567943 0.05005
v -0.262733538106299 1.04353881737299 0.05005
v -0.262733538106299 1.04353881737299 0.05005
v -0.262733538106299 1.04353881737299 -0.04995
v -0.262733538106299 -0.856461182627012 -0.04995
v -0.262733538106299 -0.856461182627012 0.05005
v 0.288905651631293 0.616576560567943 0.05005
v 0.288905651631293 0.616576560567943 -0.04995
v -0.262733538106299 1.04353881737299 -0.04995
v -0.262733538106299 1.04353881737299 0.05005
v 0.288905651631293 -0.818300603464906 0.05005
v 0.288905651631293 -0.818300603464906 -0.04995
v 0.288905651631293 0.616576560567943 -0.04995
v 0.288905651631293 0.616576560567943 0.05005
v -0.262733538106299 -0.856461182627012 0.05005
v -0.262733538106299 -0.856461182627012 -0.04995
v 0.288905651631293 -0.818300603464906 -0.04995
v 0.288905651631293 -0.818300603464906 0.05005
# 24 vertices

vn -0 0 -1
vn -0 0 -1
vn -0 0 -1
vn -0 0 -1
vn 0 -0 1
vn 0 -0 1
vn 0 -0 1
vn 0 -0 1
vn -1 -0 -0
vn -1 -0 -0
vn -1 -0 -0
vn -1 -0 -0
vn 0.612071684432882 0.790802284465273 -0
vn 0.612071684432882 0.790802284465273 -0
vn 0.612071684432882 0.790802284465273 -0
vn 0.612071684432882 0.790802284465273 -0
vn 1 1.5112125269849E-16 -0
vn 1 1.5112125269849E-16 -0
vn 1 1.5112125269849E-16 -0
vn 1 1.5112125269849E-16 -0
vn 6.90117728293249E-02 -0.997615845509159 -0
vn 6.90117728293249E-02 -0.997615845509159 -0
vn 6.90117728293249E-02 -0.997615845509159 -0
vn 6.90117728293249E-02 -0.997615845509159 -0
# 24 normals

vt 0 0
vt 0 1.9
vt -0.551639189737592 1.47303774319495
vt -0.551639189737592 0.038160579162106
vt 0 0
vt -0.551639189737592 0.038160579162106
vt -0.551639189737592 1.47303774319495
vt 0 1.9
vt 0 1.9
vt 0.1 1.9
vt 0.1 0
vt 0 0
vt 0.697569039156989 0
vt 0.697569039156989 -0.1
vt 0 -0.1
vt 0 0
vt 1.43487716403285 0
vt 1.43487716403285 -0.1
vt 0 -0.1
vt 0 0
vt 0.552957525906226 0
vt 0.552957525906226 -0.1
vt -0 -0.1
vt 0 0
# 24 UVs

g  mesh 1 fins
usemtl  1 
f 23/23/23 21/21/21 22/22/22
f 21/21/21 23/23/23 24/24/24
f 19/19/19 17/17/17 18/18/18
f 17/17/17 19/19/19 20/20/20
f 13/13/13 15/15/15 16/16/16
f 15/15/15 13/13/13 14/14/14
f 11/11/11 9/9/9 10/10/10
f 9/9/9 11/11/11 12/12/12
f 7/7/7 5/5/5 6/6/6
f 5/5/5 7/7/7 8/8/8
f 1/1/1 3/3/3 4/4/4
f 3/3/3 1/1/1 2/2/2

